<svg width="24" height="24" viewBox="0 0 24 24" fill="none" xmlns="http://www.w3.org/2000/svg">
<path d="M12.8501 1.99308L12.8427 1.24311L11.3427 1.25802L11.3502 2.00798L12.1002 2.00053L12.8501 1.99308ZM2.0081 11.3501L1.25814 11.3426L1.24323 12.8426L1.99319 12.85L2.00065 12.1L2.0081 11.3501ZM21.9919 12.6499L22.7418 12.6574L22.7567 11.1574L22.0068 11.15L21.9993 11.8999L21.9919 12.6499ZM11.1499 22.0069L11.1573 22.7569L12.6572 22.742L12.6498 21.992L11.8998 21.9995L11.1499 22.0069ZM14.298 13.2373C14.0051 12.9444 13.5302 12.9444 13.2373 13.2373C12.9445 13.5302 12.9445 14.0051 13.2373 14.298L13.7677 13.7676L14.298 13.2373ZM15.3587 16.4193C15.6516 16.7122 16.1264 16.7122 16.4193 16.4193C16.7122 16.1264 16.7122 15.6515 16.4193 15.3586L15.889 15.889L15.3587 16.4193ZM8.64113 7.58045C8.34824 7.28756 7.87336 7.28756 7.58047 7.58045C7.28758 7.87334 7.28758 8.34822 7.58047 8.64111L8.1108 8.11078L8.64113 7.58045ZM9.70179 10.7624C9.99468 11.0553 10.4696 11.0553 10.7625 10.7624C11.0553 10.4695 11.0553 9.99466 10.7625 9.70177L10.2321 10.2321L9.70179 10.7624ZM18.7381 10.7574C18.6376 10.3556 18.2304 10.1112 17.8286 10.2117C17.4267 10.3122 17.1824 10.7194 17.2829 11.1212L18.0105 10.9393L18.7381 10.7574ZM17.99 13.9496C18.0904 14.3515 18.4976 14.5958 18.8995 14.4953C19.3013 14.3949 19.5457 13.9877 19.4452 13.5858L18.7176 13.7677L17.99 13.9496ZM12.8785 6.71708C13.2804 6.81755 13.6876 6.57323 13.788 6.17138C13.8885 5.76953 13.6442 5.36233 13.2423 5.26187L13.0604 5.98948L12.8785 6.71708ZM10.4139 4.55476C10.0121 4.4543 9.60485 4.69862 9.50439 5.10047C9.40393 5.50232 9.64825 5.90952 10.0501 6.00998L10.232 5.28237L10.4139 4.55476ZM11.1213 17.2827C10.7195 17.1822 10.3123 17.4265 10.2118 17.8284C10.1114 18.2302 10.3557 18.6374 10.7575 18.7379L10.9394 18.0103L11.1213 17.2827ZM13.586 19.445C13.9878 19.5455 14.395 19.3011 14.4955 18.8993C14.5959 18.4974 14.3516 18.0902 13.9498 17.9898L13.7679 18.7174L13.586 19.445ZM5.26177 13.2424C5.36223 13.6442 5.76944 13.8885 6.17128 13.7881C6.57313 13.6876 6.81745 13.2804 6.71699 12.8786L5.98938 13.0605L5.26177 13.2424ZM6.00988 10.0501C5.90942 9.64828 5.50222 9.40396 5.10037 9.50442C4.69853 9.60488 4.4542 10.0121 4.55467 10.4139L5.28227 10.232L6.00988 10.0501ZM19.0711 19.0711L18.5407 18.5407C14.9284 22.1531 9.07161 22.1531 5.45926 18.5407L4.92893 19.0711L4.3986 19.6014C8.59674 23.7995 15.4033 23.7995 19.6014 19.6014L19.0711 19.0711ZM4.92893 19.0711L5.45926 18.5407C1.84691 14.9284 1.84691 9.07161 5.45926 5.45926L4.92893 4.92893L4.3986 4.3986C0.200466 8.59674 0.200466 15.4033 4.3986 19.6014L4.92893 19.0711ZM4.92893 4.92893L5.45926 5.45926C9.07161 1.84691 14.9284 1.84691 18.5407 5.45926L19.0711 4.92893L19.6014 4.3986C15.4033 0.200466 8.59674 0.200466 4.3986 4.3986L4.92893 4.92893ZM19.0711 4.92893L18.5407 5.45926C22.1531 9.07161 22.1531 14.9284 18.5407 18.5407L19.0711 19.0711L19.6014 19.6014C23.7995 15.4033 23.7995 8.59674 19.6014 4.3986L19.0711 4.92893ZM12.1002 2.00053L11.3502 2.00798C11.374 4.40725 10.4712 6.81146 8.64139 8.64128L9.17172 9.17161L9.70205 9.70194C11.8284 7.57564 12.8778 4.77872 12.8501 1.99308L12.1002 2.00053ZM9.17172 9.17161L8.64139 8.64128C6.81158 10.4711 4.40737 11.3739 2.0081 11.3501L2.00065 12.1L1.99319 12.85C4.77883 12.8777 7.57575 11.8282 9.70205 9.70194L9.17172 9.17161ZM21.9993 11.8999L22.0068 11.15C19.2211 11.1223 16.4242 12.1717 14.2979 14.298L14.8283 14.8284L15.3586 15.3587C17.1884 13.5289 19.5926 12.6261 21.9919 12.6499L21.9993 11.8999ZM14.8283 14.8284L14.2979 14.298C12.1716 16.4243 11.1222 19.2213 11.1499 22.0069L11.8998 21.9995L12.6498 21.992C12.6259 19.5927 13.5288 17.1885 15.3586 15.3587L14.8283 14.8284ZM13.7677 13.7676L13.2373 14.298L15.3587 16.4193L15.889 15.889L16.4193 15.3586L14.298 13.2373L13.7677 13.7676ZM8.1108 8.11078L7.58047 8.64111L9.70179 10.7624L10.2321 10.2321L10.7625 9.70177L8.64113 7.58045L8.1108 8.11078ZM18.0105 10.9393L17.2829 11.1212L17.99 13.9496L18.7176 13.7677L19.4452 13.5858L18.7381 10.7574L18.0105 10.9393ZM13.0604 5.98948L13.2423 5.26187L10.4139 4.55476L10.232 5.28237L10.0501 6.00998L12.8785 6.71708L13.0604 5.98948ZM10.9394 18.0103L10.7575 18.7379L13.586 19.445L13.7679 18.7174L13.9498 17.9898L11.1213 17.2827L10.9394 18.0103ZM5.98938 13.0605L6.71699 12.8786L6.00988 10.0501L5.28227 10.232L4.55467 10.4139L5.26177 13.2424L5.98938 13.0605Z" fill="#26272B"/>
</svg>
