<svg width="24" height="24" viewBox="0 0 24 24" fill="none" xmlns="http://www.w3.org/2000/svg">
<path d="M2.45399 13.7677C1.8682 13.1819 1.8682 12.2322 2.45399 11.6464C3.03977 11.0606 3.98952 11.0606 4.57531 11.6464L12.3535 19.4246C12.9393 20.0103 12.9393 20.9601 12.3535 21.5459C11.7677 22.1317 10.8179 22.1317 10.2322 21.5459L2.45399 13.7677Z" stroke="#26272B" stroke-width="1.5" stroke-linecap="round" stroke-linejoin="round"/>
<path d="M7.05018 14.1213L14.1213 7.05018L16.9497 9.87861L9.87861 16.9497L7.05018 14.1213Z" stroke="#26272B" stroke-width="1.5" stroke-linecap="round" stroke-linejoin="round"/>
<path d="M2.80754 18.3639C2.02649 17.5828 2.02649 16.3165 2.80754 15.5355L3.51465 14.8284L9.1715 20.4852L8.4644 21.1923C7.68335 21.9734 6.41702 21.9734 5.63597 21.1923L2.80754 18.3639Z" stroke="#26272B" stroke-width="1.5" stroke-linecap="round" stroke-linejoin="round"/>
<path d="M13.7677 2.45399C13.1819 1.8682 12.2322 1.8682 11.6464 2.45399C11.0606 3.03977 11.0606 3.98952 11.6464 4.57531L19.4246 12.3535C20.0103 12.9393 20.9601 12.9393 21.5459 12.3535C22.1317 11.7677 22.1317 10.8179 21.5459 10.2322L13.7677 2.45399Z" stroke="#26272B" stroke-width="1.5" stroke-linecap="round" stroke-linejoin="round"/>
<path d="M18.3639 2.80754C17.5828 2.02649 16.3165 2.02649 15.5355 2.80754L14.8284 3.51465L20.4852 9.1715L21.1923 8.4644C21.9734 7.68335 21.9734 6.41702 21.1923 5.63597L18.3639 2.80754Z" stroke="#26272B" stroke-width="1.5" stroke-linecap="round" stroke-linejoin="round"/>
</svg>
