<svg width="24" height="24" viewBox="0 0 24 24" fill="none" xmlns="http://www.w3.org/2000/svg">
<path d="M2.00004 15C1.0576 11.7018 1.89112 8.84756 3.66412 7.27419C3.85023 7.10904 4.12758 7.1333 4.31151 7.30087C4.88109 7.81979 5.85038 8.5 7.49988 8.5C9.13615 8.5 10.438 7.38443 11.1313 6.52231C11.3351 6.26882 11.6999 6.24334 11.8902 6.50717C12.6283 7.53068 14.152 9.59312 17.0002 10C20.5002 10.5 22.5001 12 22.5001 15L22.5 17C22.5 17.2762 22.2761 17.5 22 17.5H2.49997C2.22382 17.5 1.99995 17.2762 1.99997 17.0001C2 16.4345 2.00004 15.5241 2.00004 15ZM22.5001 15H2.00004M11.5002 10L12.7502 8.33494M14.0002 11L15.0002 9.49939" stroke="#26272B" stroke-width="1.5" stroke-linecap="round" stroke-linejoin="round"/>
</svg>
