<svg width="24" height="24" viewBox="0 0 24 24" fill="none" xmlns="http://www.w3.org/2000/svg">
<path d="M20.5577 15.8428L21.3087 15.5085C21.1639 15.1831 20.826 14.9881 20.4718 15.0253L20.5577 15.8428ZM14.3605 21.4229L13.5564 21.252C13.4823 21.6003 13.641 21.9567 13.9495 22.1348L14.3605 21.4229ZM3.04214 7.55018L2.30621 7.18391V7.18391L3.04214 7.55018ZM2.87069 16.0872L2.1206 16.4235H2.1206L2.87069 16.0872ZM20.8887 16.5862L21.6189 16.9637L20.8887 16.5862ZM10.5002 5.41146L10.017 6.07651L14.1866 9.10592L14.6698 8.44088L15.153 7.77583L10.9834 4.74642L10.5002 5.41146ZM14.6698 8.44088L13.888 8.18685L12.2954 13.0885L13.0772 13.3426L13.859 13.5966L15.4516 8.6949L14.6698 8.44088ZM13.0772 13.3426V12.5205H7.92321V13.3426V14.1646H13.0772V13.3426ZM7.92321 13.3426L8.70502 13.0885L7.11236 8.18685L6.33055 8.44088L5.54875 8.6949L7.1414 13.5966L7.92321 13.3426ZM6.33055 8.44088L6.81373 9.10592L10.9834 6.07651L10.5002 5.41146L10.017 4.74642L5.84737 7.77583L6.33055 8.44088ZM20.5577 15.8428L20.4718 15.0253L15.3461 15.564L15.432 16.3816L15.518 17.1991L20.6437 16.6604L20.5577 15.8428ZM15.432 16.3816L14.628 16.2107L13.5564 21.252L14.3605 21.4229L15.1645 21.5938L16.2361 16.5525L15.432 16.3816ZM10.5002 5.41146H11.3222V2.1233H10.5002H9.67814V5.41146H10.5002ZM14.6698 8.44088L14.8848 9.23432L18.3871 8.28558L18.1722 7.49214L17.9572 6.69869L14.4549 7.64743L14.6698 8.44088ZM13.0772 13.3426L12.4274 13.8461L14.7822 16.8851L15.432 16.3816L16.0818 15.8781L13.7269 12.8391L13.0772 13.3426ZM7.92321 13.3426L7.26274 12.8532L5.01082 15.8921L5.67129 16.3816L6.33176 16.871L8.58368 13.832L7.92321 13.3426ZM19.0957 5.08632L18.3282 4.79173L17.4047 7.19754L18.1722 7.49214L18.9396 7.78673L19.8631 5.38092L19.0957 5.08632ZM18.1722 7.49214L17.776 8.21243L21.2655 10.1315L21.6617 9.41123L22.0578 8.69094L18.5683 6.77184L18.1722 7.49214ZM12 2V2.82204C16.246 2.82204 19.8205 5.70609 20.8675 9.62348L21.6617 9.41123L22.4558 9.19898C21.2215 4.58046 17.0091 1.17796 12 1.17796V2ZM21.6617 9.41123L20.8675 9.62348C21.0698 10.3806 21.178 11.177 21.178 12H22H22.822C22.822 11.0324 22.6949 10.0933 22.4558 9.19898L21.6617 9.41123ZM6.33055 8.44088L6.54546 7.64743L3.25705 6.75673L3.04214 7.55018L2.82723 8.34363L6.11564 9.23433L6.33055 8.44088ZM2 12H2.82204C2.82204 10.5313 3.16641 9.1454 3.77807 7.91646L3.04214 7.55018L2.30621 7.18391C1.58383 8.63532 1.17796 10.2714 1.17796 12H2ZM3.04214 7.55018L3.77807 7.91646C5.28182 4.8951 8.39957 2.82204 12 2.82204V2V1.17796C7.75199 1.17796 4.07718 3.62567 2.30621 7.18391L3.04214 7.55018ZM2.87069 16.0872L2.78476 16.9047L5.58536 17.1991L5.67129 16.3816L5.75721 15.564L2.95662 15.2697L2.87069 16.0872ZM2.87069 16.0872L3.62078 15.7509C3.10778 14.6068 2.82204 13.3379 2.82204 12H2H1.17796C1.17796 13.5742 1.5146 15.072 2.1206 16.4235L2.87069 16.0872ZM12 22V21.178C10.1411 21.178 8.41353 20.6262 6.96918 19.6777L6.51795 20.3648L6.06671 21.0519C7.77091 22.1711 9.81069 22.822 12 22.822V22ZM6.51795 20.3648L6.96918 19.6777C5.51029 18.7196 4.34097 17.3571 3.62078 15.7509L2.87069 16.0872L2.1206 16.4235C2.97025 18.3184 4.34819 19.9234 6.06671 21.0519L6.51795 20.3648ZM5.67129 16.3816L4.86721 16.5525L5.71387 20.5357L6.51795 20.3648L7.32202 20.1939L6.47536 16.2107L5.67129 16.3816ZM20.8887 16.5862L21.6397 16.2518L21.3087 15.5085L20.5577 15.8428L19.8068 16.1772L20.1377 16.9205L20.8887 16.5862ZM22 12H21.178C21.178 13.5186 20.8098 14.9489 20.1585 16.2086L20.8887 16.5862L21.6189 16.9637C22.388 15.476 22.822 13.7875 22.822 12H22ZM20.8887 16.5862L20.1585 16.2086C19.0031 18.4435 16.9564 20.1424 14.4917 20.8359L14.7144 21.6272L14.937 22.4185C17.8469 21.5998 20.2576 19.5968 21.6189 16.9637L20.8887 16.5862ZM14.7144 21.6272L14.4917 20.8359C13.7003 21.0586 12.8648 21.178 12 21.178V22V22.822C13.0168 22.822 14.0021 22.6816 14.937 22.4185L14.7144 21.6272ZM14.3605 21.4229L13.9495 22.1348L14.3034 22.3391L14.7144 21.6272L15.1254 20.9153L14.7715 20.711L14.3605 21.4229Z" fill="#26272B"/>
</svg>
