<svg width="24" height="24" viewBox="0 0 24 24" fill="none" xmlns="http://www.w3.org/2000/svg">
<path d="M2 18L3.66667 16.75C4.65432 16.0093 6.01235 16.0093 7 16.75C7.98765 17.4907 9.34568 17.4907 10.3333 16.75C11.321 16.0093 12.679 16.0093 13.6667 16.75C14.6543 17.4907 16.0123 17.4907 17 16.75C17.9877 16.0093 19.3457 16.0093 20.3333 16.75L22 18M2 21.5L3.66667 20.25C4.65432 19.5093 6.01235 19.5093 7 20.25C7.98765 20.9907 9.34568 20.9907 10.3333 20.25C11.321 19.5093 12.679 19.5093 13.6667 20.25C14.6543 20.9907 16.0123 20.9907 17 20.25C17.9877 19.5093 19.3457 19.5093 20.3333 20.25L22 21.5M7 16.5V5.69258C7 4.06635 7.99009 2.60397 9.5 2M17 16.5V5.69258C17 4.06635 17.9901 2.60397 19.5 2M7 7H17M7 12H17" stroke="#26272B" stroke-width="1.5" stroke-linecap="round" stroke-linejoin="round"/>
</svg>
