<svg width="24" height="24" viewBox="0 0 24 24" fill="none" xmlns="http://www.w3.org/2000/svg">
<path d="M3.40242 10.3007L14.834 16.9007M17.9999 13.6171C15.5249 17.9039 10.8894 19.0381 7.20653 16.9118C3.52369 14.7855 2.18813 10.2039 4.66313 5.91708C7.13813 1.63025 11.7737 0.496076 15.4565 2.62237C19.1394 4.74866 20.4749 9.33025 17.9999 13.6171ZM6.29152 16.2966L8.08492 17.3502L5.88547 22.4999L3.02759 20.8499L6.29152 16.2966ZM20.9999 19.9999C20.9999 21.1045 20.1045 21.9999 18.9999 21.9999C17.8954 21.9999 16.9999 21.1045 16.9999 19.9999C16.9999 18.8954 17.8954 17.9999 18.9999 17.9999C20.1045 17.9999 20.9999 18.8954 20.9999 19.9999Z" stroke="#26272B" stroke-width="1.5" stroke-linejoin="round"/>
</svg>
