<svg width="24" height="24" viewBox="0 0 24 24" fill="none" xmlns="http://www.w3.org/2000/svg">
<g clip-path="url(#clip0_216_1112)">
<path d="M12.0002 12.0006C13.8009 12.0006 15.4904 12.4766 16.9499 13.3095M2.75702 16.986C4.72762 17.0995 6.69288 16.625 8.39197 15.6327C9.84298 14.7852 11.0999 13.56 12.0002 12.0006M12.0002 12.0006C11.0999 10.4412 10.6673 8.74013 10.6589 7.05979M16.9499 13.3095C16.7628 13.7118 16.5564 14.1093 16.3303 14.5009C16.1044 14.8923 15.8634 15.2697 15.6086 15.6327C13.5654 18.5438 10.6326 20.5326 7.39897 21.4413M16.9499 13.3095C18.6586 14.2847 20.0519 15.7493 20.9389 17.5124M8.39197 15.6327C8.13711 15.2696 7.8961 14.8921 7.67007 14.5006C5.63219 10.9709 5.19191 6.95725 6.12488 3.29691M10.6589 7.05979C10.6501 5.28541 11.1142 3.53417 12.0002 1.99737C12.0963 1.83057 12.1974 1.66629 12.3035 1.50478M10.6589 7.05979C11.1008 7.02063 11.5482 7.00063 12.0002 7.00063C16.0756 7.00063 19.7714 8.62589 22.4748 11.2636M6.12488 3.29691C3.33451 5.18424 1.50024 8.37816 1.50024 12.0005C1.50024 13.8048 1.95535 15.5028 2.75702 16.986M6.12488 3.29691C7.80162 2.16281 9.82358 1.50049 12.0002 1.50049C12.1017 1.50049 12.2027 1.50193 12.3035 1.50478M20.9389 17.5124C21.9289 15.9103 22.5002 14.0221 22.5002 12.0005C22.5002 11.7528 22.4917 11.507 22.4748 11.2636C22.1035 5.9081 17.7162 1.65828 12.3035 1.50478M20.9389 17.5124C19.0891 20.5059 15.7776 22.5005 12.0002 22.5005C10.3499 22.5005 8.78843 22.1197 7.39897 21.4413M7.39897 21.4413C5.42529 20.4775 3.79862 18.9131 2.75702 16.986" stroke="#26272B" stroke-width="1.5" stroke-linecap="round"/>
</g>
<defs>
<clipPath id="clip0_216_1112">
<rect width="24" height="24" fill="white"/>
</clipPath>
</defs>
</svg>
